<?xml version="1.0" encoding="UTF-8"?>
<svg version="1.1" xmlns="http://www.w3.org/2000/svg" width="256" height="256">
<path d="M0 0 C84.48 0 168.96 0 256 0 C256 84.48 256 168.96 256 256 C171.52 256 87.04 256 0 256 C0 171.52 0 87.04 0 0 Z " fill="#1F212E" transform="translate(0,0)"/>
<path d="M0 0 C41.58 0 83.16 0 126 0 C126 41.58 126 83.16 126 126 C121.93859412 123.96929706 119.16572421 121.52798664 115.9375 118.4375 C111.02237703 113.8102806 105.97463011 109.460794 100.70703125 105.234375 C96.80934091 102.01723377 93.11420461 98.60080841 89.41015625 95.1640625 C87.34279164 93.30779022 85.25355413 91.6208858 83 90 C83.78757869 86.31642885 85.28226829 83.38977591 87.0625 80.09765625 C90.09760301 73.30661326 90.36318041 64.14044838 88.05859375 57.140625 C86.84735147 54.6346065 85.519564 52.33028111 84 50 C83.319375 48.9275 82.63875 47.855 81.9375 46.75 C77.06767253 41.27144409 68.2643515 37.54207184 61.02734375 36.796875 C52.55213544 36.60677687 44.34384186 38.06543826 38 44 C37.34 44 36.68 44 36 44 C34.64617851 42.51261765 33.36860114 40.95569449 32.125 39.375 C28.49871131 34.83922411 24.79724515 30.39347184 21 26 C15.14474561 19.20541489 9.36536932 12.34899749 3.875 5.25390625 C2.19871538 2.9320243 2.19871538 2.9320243 0 2 C0 1.34 0 0.68 0 0 Z " fill="#F9F9F9" transform="translate(70,60)"/>
<path d="M0 0 C3.99988296 1.99994148 6.98961275 4.39840462 10.3125 7.3125 C11.22140991 8.10068115 11.22140991 8.10068115 12.14868164 8.90478516 C13.43757219 10.02313338 14.72488518 11.14330191 16.01074219 12.26513672 C18.66757695 14.58220445 21.33336799 16.88885443 23.9987793 19.19604492 C25.84301529 20.79317512 27.68530265 22.39252693 29.52734375 23.9921875 C33.00549427 27.00968864 36.50051231 30.00728874 40 33 C39.48825889 35.8145761 38.86061662 38.4099511 37.9375 41.125 C35.40710778 51.58395452 37.1406979 60.56223067 42.625 69.6875 C46.69822522 75.46885192 51.89693114 78.73578676 58.375 81.375 C66.02560136 82.6940692 72.74903162 82.57000085 80.02734375 79.75390625 C81.99839951 79.00061167 83.94569282 78.47336385 86 78 C86.43828125 78.55945313 86.8765625 79.11890625 87.328125 79.6953125 C91.38770075 84.82754037 95.5449529 89.85273227 99.8125 94.8125 C100.3173291 95.39966797 100.8221582 95.98683594 101.34228516 96.59179688 C103.41985616 99.00632454 105.49886436 101.41959916 107.58056641 103.83056641 C109.0992912 105.59205957 110.6126128 107.35806508 112.125 109.125 C112.58624268 109.65714111 113.04748535 110.18928223 113.52270508 110.73754883 C115.83552268 113.44722243 117.38517098 115.77034196 119 119 C79.73 119 40.46 119 0 119 C0 79.73 0 40.46 0 0 Z " fill="#F9F9F9" transform="translate(60,77)"/>
</svg>
