<svg width="86" height="12" viewBox="0 0 86 12" fill="none" xmlns="http://www.w3.org/2000/svg">
<path d="M0.429932 11.6812V0.277548H4.74703L9.43881 8.6185L10.3185 8.04832C9.79721 7.24463 9.42795 6.5224 9.21074 5.88163C8.99353 5.22999 8.88492 4.46975 8.88492 3.6009V0.277548H11.8662V11.6812H8.34732L2.8247 1.84148L1.94499 2.37908C2.92244 3.99731 3.41117 5.62097 3.41117 7.25006V11.6812H0.429932Z" fill="white"/>
<path d="M14.2072 11.6812V0.277548H23.0369V2.7049H17.221V4.72497H21.7173V6.98941H17.221V9.25385H23.0369V11.6812H14.2072Z" fill="white"/>
<path d="M24.7996 7.03828V0.277548H27.8786V6.63101C27.8786 8.47731 28.6226 9.40046 30.1105 9.40046C31.5984 9.40046 32.3423 8.47731 32.3423 6.63101V0.277548H35.4213V7.03828C35.4213 8.61307 34.9489 9.82946 34.004 10.6874C33.07 11.5346 31.7721 11.9581 30.1105 11.9581C28.4271 11.9581 27.1184 11.5346 26.1844 10.6874C25.2612 9.82946 24.7996 8.61307 24.7996 7.03828Z" fill="white"/>
<path d="M40.3452 11.6812V2.62344H36.6635V0.277548H47.1386V2.62344H43.4405V11.6812H40.3452Z" fill="white"/>
<path d="M48.4913 11.6812V0.277548H54.5027C55.7517 0.277548 56.7291 0.543634 57.4351 1.0758C58.1519 1.60797 58.5103 2.32477 58.5103 3.2262C58.5103 3.96473 58.3148 4.52948 57.9238 4.92046C57.5654 5.27886 57.1364 5.52322 56.6368 5.65355C56.1372 5.78388 55.5073 5.86533 54.7471 5.89792V6.85908C55.8874 6.8808 56.7182 7.04914 57.2396 7.3641C57.7717 7.67906 58.1247 8.29268 58.2985 9.20497L58.8035 11.6812H55.5453L55.1054 9.04206C55.0294 8.47731 54.8502 8.07547 54.5678 7.83654C54.2855 7.5976 53.8565 7.47814 53.2809 7.47814H51.5214V11.6812H48.4913ZM51.5214 5.26257H53.7859C54.2638 5.26257 54.6439 5.14853 54.9263 4.92046C55.2086 4.69239 55.3498 4.372 55.3498 3.9593C55.3498 3.54659 55.2086 3.23164 54.9263 3.01442C54.6547 2.78635 54.2746 2.67231 53.7859 2.67231H51.5214V5.26257Z" fill="white"/>
<path d="M59.6617 6.02824C59.6617 4.26882 60.2156 2.82436 61.3234 1.69486C62.4311 0.565355 63.9625 0.000603388 65.9174 0.000603388C67.8723 -0.0211182 69.4091 0.543634 70.5277 1.69486C71.6572 2.84608 72.2111 4.29055 72.1894 6.02824C72.1894 7.7768 71.6409 9.20497 70.544 10.3128C69.4471 11.4097 67.9049 11.9581 65.9174 11.9581C63.9408 11.9581 62.404 11.4097 61.3071 10.3128C60.2101 9.20497 59.6617 7.7768 59.6617 6.02824ZM68.9312 6.01195C68.9312 4.93675 68.6651 4.07876 68.133 3.43799C67.6008 2.78635 66.8677 2.46053 65.9337 2.46053C64.9997 2.46053 64.2612 2.78635 63.7181 3.43799C63.186 4.08962 62.9199 4.94761 62.9199 6.01195C62.9199 7.06543 63.186 7.91256 63.7181 8.55334C64.2503 9.18325 64.9888 9.49821 65.9337 9.49821C66.8677 9.49821 67.6008 9.18325 68.133 8.55334C68.6651 7.91256 68.9312 7.06543 68.9312 6.01195Z" fill="white"/>
<path d="M73.9459 11.6812V0.277548H78.263L82.9548 8.6185L83.8345 8.04832C83.3132 7.24463 82.9439 6.5224 82.7267 5.88163C82.5095 5.22999 82.4009 4.46975 82.4009 3.6009V0.277548H85.3821V11.6812H81.8633L76.3407 1.84148L75.461 2.37908C76.4384 3.99731 76.9271 5.62097 76.9271 7.25006V11.6812H73.9459Z" fill="white"/>
</svg>
