<svg width="105" height="12" viewBox="0 0 105 12" fill="none" xmlns="http://www.w3.org/2000/svg">
<path d="M10.1021 11.6941L7.4082 8.1817C6.94946 8.53294 6.36384 8.74175 5.73917 8.74175C4.22629 8.74175 2.99648 7.51714 2.99648 5.99827C2.99648 5.37173 3.21121 4.79271 3.56259 4.32755L0 1.59357V11.6941H10.1021Z" fill="white"/>
<path d="M11.43 0.264256H1.32788L4.06082 3.82412C4.51956 3.46339 5.10518 3.25457 5.72985 3.25457C7.24273 3.25457 8.47256 4.47912 8.47256 5.998C8.47256 6.62453 8.25783 7.20361 7.90645 7.66877L11.4202 10.3648V0.264256H11.43Z" fill="white"/>
<path d="M19.4299 11.6812V0.277548H23.747L28.4388 8.6185L29.3185 8.04832C28.7972 7.24463 28.428 6.5224 28.2107 5.88163C27.9935 5.22999 27.8849 4.46975 27.8849 3.6009V0.277548H30.8662V11.6812H27.3473L21.8247 1.84148L20.945 2.37908C21.9224 3.99731 22.4112 5.62097 22.4112 7.25006V11.6812H19.4299Z" fill="white"/>
<path d="M33.2072 11.6812V0.277548H42.0369V2.7049H36.221V4.72497H40.7173V6.98941H36.221V9.25385H42.0369V11.6812H33.2072Z" fill="white"/>
<path d="M43.7996 7.03828V0.277548H46.8786V6.63101C46.8786 8.47731 47.6226 9.40046 49.1105 9.40046C50.5984 9.40046 51.3423 8.47731 51.3423 6.63101V0.277548H54.4213V7.03828C54.4213 8.61307 53.9489 9.82946 53.004 10.6874C52.07 11.5346 50.7721 11.9581 49.1105 11.9581C47.4271 11.9581 46.1184 11.5346 45.1844 10.6874C44.2612 9.82946 43.7996 8.61307 43.7996 7.03828Z" fill="white"/>
<path d="M59.3452 11.6812V2.62344H55.6635V0.277548H66.1386V2.62344H62.4405V11.6812H59.3452Z" fill="white"/>
<path d="M67.4913 11.6812V0.277548H73.5027C74.7517 0.277548 75.7291 0.543634 76.4351 1.0758C77.1519 1.60797 77.5102 2.32477 77.5102 3.2262C77.5102 3.96473 77.3148 4.52948 76.9238 4.92046C76.5654 5.27886 76.1364 5.52322 75.6368 5.65355C75.1372 5.78388 74.5073 5.86533 73.747 5.89792V6.85908C74.8874 6.8808 75.7182 7.04914 76.2396 7.3641C76.7717 7.67906 77.1247 8.29268 77.2985 9.20497L77.8035 11.6812H74.5453L74.1054 9.04206C74.0294 8.47731 73.8502 8.07547 73.5678 7.83654C73.2855 7.5976 72.8565 7.47814 72.2809 7.47814H70.5214V11.6812H67.4913ZM70.5214 5.26257H72.7859C73.2638 5.26257 73.6439 5.14853 73.9263 4.92046C74.2086 4.69239 74.3498 4.372 74.3498 3.9593C74.3498 3.54659 74.2086 3.23164 73.9263 3.01442C73.6547 2.78635 73.2746 2.67231 72.7859 2.67231H70.5214V5.26257Z" fill="white"/>
<path d="M78.6617 6.02824C78.6617 4.26882 79.2156 2.82436 80.3234 1.69486C81.4311 0.565355 82.9625 0.000603388 84.9174 0.000603388C86.8723 -0.0211182 88.4091 0.543634 89.5277 1.69486C90.6572 2.84608 91.2111 4.29055 91.1894 6.02824C91.1894 7.7768 90.6409 9.20497 89.544 10.3128C88.4471 11.4097 86.9049 11.9581 84.9174 11.9581C82.9408 11.9581 81.404 11.4097 80.3071 10.3128C79.2101 9.20497 78.6617 7.7768 78.6617 6.02824ZM87.9312 6.01195C87.9312 4.93675 87.6651 4.07876 87.133 3.43799C86.6008 2.78635 85.8677 2.46053 84.9337 2.46053C83.9997 2.46053 83.2612 2.78635 82.7181 3.43799C82.186 4.08962 81.9199 4.94761 81.9199 6.01195C81.9199 7.06543 82.186 7.91256 82.7181 8.55334C83.2503 9.18325 83.9888 9.49821 84.9337 9.49821C85.8677 9.49821 86.6008 9.18325 87.133 8.55334C87.6651 7.91256 87.9312 7.06543 87.9312 6.01195Z" fill="white"/>
<path d="M92.9459 11.6812V0.277548H97.263L101.955 8.6185L102.834 8.04832C102.313 7.24463 101.944 6.5224 101.727 5.88163C101.509 5.22999 101.401 4.46975 101.401 3.6009V0.277548H104.382V11.6812H100.863L95.3407 1.84148L94.461 2.37908C95.4384 3.99731 95.9271 5.62097 95.9271 7.25006V11.6812H92.9459Z" fill="white"/>
</svg>
